<svg width="100" height="100" viewBox="0 0 100 100" xmlns="http://www.w3.org/2000/svg">
  <defs>
    <linearGradient id="celebrationGradient" x1="0%" y1="0%" x2="100%" y2="100%">
      <stop offset="0%" style="stop-color:#ff6b6b;stop-opacity:1" />
      <stop offset="100%" style="stop-color:#feca57;stop-opacity:1" />
    </linearGradient>
    <filter id="celebrationShadow" x="-20%" y="-20%" width="140%" height="140%">
      <feDropShadow dx="0" dy="4" stdDeviation="3" flood-color="#000000" flood-opacity="0.3"/>
    </filter>
  </defs>
  
  <!-- Pháo hoa -->
  <circle cx="50" cy="50" r="15" fill="url(#celebrationGradient)" filter="url(#celebrationShadow)"/>
  
  <!-- Tia sáng -->
  <line x1="50" y1="20" x2="50" y2="35" stroke="url(#celebrationGradient)" stroke-width="3" stroke-linecap="round"/>
  <line x1="50" y1="65" x2="50" y2="80" stroke="url(#celebrationGradient)" stroke-width="3" stroke-linecap="round"/>
  <line x1="20" y1="50" x2="35" y2="50" stroke="url(#celebrationGradient)" stroke-width="3" stroke-linecap="round"/>
  <line x1="65" y1="50" x2="80" y2="50" stroke="url(#celebrationGradient)" stroke-width="3" stroke-linecap="round"/>
  
  <!-- Tia chéo -->
  <line x1="25" y1="25" x2="35" y2="35" stroke="url(#celebrationGradient)" stroke-width="2" stroke-linecap="round"/>
  <line x1="65" y1="35" x2="75" y2="25" stroke="url(#celebrationGradient)" stroke-width="2" stroke-linecap="round"/>
  <line x1="25" y1="75" x2="35" y2="65" stroke="url(#celebrationGradient)" stroke-width="2" stroke-linecap="round"/>
  <line x1="65" y1="65" x2="75" y2="75" stroke="url(#celebrationGradient)" stroke-width="2" stroke-linecap="round"/>
  
  <!-- Ngôi sao nhỏ -->
  <polygon points="50,10 52,15 57,15 53,18 55,23 50,20 45,23 47,18 43,15 48,15" fill="#feca57"/>
  <polygon points="50,90 52,85 57,85 53,82 55,77 50,80 45,77 47,82 43,85 48,85" fill="#ff6b6b"/>
  <polygon points="10,50 15,52 15,57 18,53 23,55 20,50 23,45 18,47 15,43 15,48" fill="#4ecdc4"/>
  <polygon points="90,50 85,52 85,57 82,53 77,55 80,50 77,45 82,47 85,43 85,48" fill="#feca57"/>
</svg> 